<svg width="600" height="300" viewBox="0 0 600 300" fill="none" xmlns="http://www.w3.org/2000/svg">
<rect width="600" height="300" fill="#1E1E1E"/>
<g clip-path="url(#clip0_0_1)">
<rect width="600" height="300" fill="white"/>
<path d="M37.4844 140H32.5625L29.3281 130.836C28.75 129.211 27.7891 127.883 26.4453 126.852C25.1016 125.82 23.5547 125.305 21.8047 125.305H13.3906V140H8.84375V105.641H24.0547C26.7109 105.641 28.8828 105.898 30.5703 106.414C32.2578 106.93 33.6328 108.016 34.6953 109.672C35.7578 111.328 36.2891 113.195 36.2891 115.273C36.2891 117.648 35.6016 119.633 34.2266 121.227C32.8516 122.82 30.9688 123.859 28.5781 124.344V124.438C30.9688 125.203 32.7891 127.273 34.0391 130.648L37.4844 140ZM13.3906 121.227H23.5391C26.3672 121.227 28.4141 120.781 29.6797 119.891C30.9609 119 31.6016 117.461 31.6016 115.273C31.6016 111.367 29.1484 109.414 24.2422 109.414H13.3906V121.227ZM69.1484 140H43.5312V105.641H68.3516V109.719H48.0781V120.219H67.0391V124.297H48.0781V135.922H69.1484V140ZM99.9688 109.719H88.6016V140H84.0312V109.719H72.7578V105.641H99.9688V109.719ZM122.656 125.938L116.609 110L110.844 125.938H122.656ZM133.109 140H127.977L123.992 129.547H109.602L105.805 140H101L114.195 105.641H119.094L133.109 140ZM142.039 140H137.469V105.641H142.039V140ZM171.523 140H150.266V105.641H154.812V135.922H171.523V140Z" fill="black"/>
<path d="M449.484 140H444.562L441.328 130.836C440.75 129.211 439.789 127.883 438.445 126.852C437.102 125.82 435.555 125.305 433.805 125.305H425.391V140H420.844V105.641H436.055C438.711 105.641 440.883 105.898 442.57 106.414C444.258 106.93 445.633 108.016 446.695 109.672C447.758 111.328 448.289 113.195 448.289 115.273C448.289 117.648 447.602 119.633 446.227 121.227C444.852 122.82 442.969 123.859 440.578 124.344V124.438C442.969 125.203 444.789 127.273 446.039 130.648L449.484 140ZM425.391 121.227H435.539C438.367 121.227 440.414 120.781 441.68 119.891C442.961 119 443.602 117.461 443.602 115.273C443.602 111.367 441.148 109.414 436.242 109.414H425.391V121.227ZM481.148 140H455.531V105.641H480.352V109.719H460.078V120.219H479.039V124.297H460.078V135.922H481.148V140ZM511.969 109.719H500.602V140H496.031V109.719H484.758V105.641H511.969V109.719ZM542.508 140H516.891V105.641H541.711V109.719H521.438V120.219H540.398V124.297H521.438V135.922H542.508V140ZM570.164 140H548.906V105.641H553.453V135.922H570.164V140ZM596.883 140H575.625V105.641H580.172V135.922H596.883V140Z" fill="black"/>
<path d="M233.741 127.153C231.993 124.053 228.818 122.174 224.938 121.897V113.66C227.527 112.362 229.308 109.682 229.308 106.595V105.06C229.308 105.025 229.306 104.99 229.303 104.957V104.954C229.298 104.917 229.293 104.882 229.286 104.846C229.283 104.839 229.281 104.831 229.281 104.824C229.273 104.793 229.265 104.766 229.255 104.738C229.253 104.733 229.253 104.731 229.25 104.726L225.708 94.9336C225.061 93.1523 223.418 92 221.526 92H179.784C177.89 92 176.249 93.1498 175.6 94.9336L172.058 104.726C172.055 104.731 172.055 104.736 172.053 104.738C172.043 104.766 172.035 104.796 172.028 104.824C172.025 104.831 172.023 104.839 172.023 104.846C172.015 104.882 172.008 104.917 172.005 104.954V104.957C172.003 104.992 172 105.025 172 105.06V106.595C172 109.682 173.781 112.361 176.37 113.66V144.251C176.37 144.792 176.81 145.232 177.351 145.232H218.676C218.95 145.607 219.227 145.979 219.498 146.352C220.93 148.289 222.278 150.121 223.081 151.509C223.257 151.814 223.579 152 223.931 152C224.281 152 224.606 151.814 224.782 151.509C225.587 150.116 226.938 148.286 228.369 146.349C229.919 144.248 231.678 141.871 233.014 139.659C235.532 135.485 235.804 130.811 233.741 127.153ZM227.346 106.595C227.346 109.868 224.681 112.533 221.408 112.533C218.135 112.533 215.471 109.868 215.471 106.595V106.041H227.343L227.346 106.595ZM213.511 106.595C213.511 109.868 210.847 112.533 207.571 112.533C204.298 112.533 201.633 109.868 201.633 106.595V106.041H213.511L213.511 106.595ZM199.671 106.595C199.671 109.868 197.007 112.533 193.733 112.533C190.46 112.533 187.796 109.868 187.796 106.595V106.041H199.669L199.671 106.595ZM177.445 95.6031C177.812 94.5917 178.708 93.9627 179.782 93.9627H221.522C222.596 93.9627 223.492 94.5917 223.859 95.6006L226.926 104.077H214.49L200.652 104.079H174.378L177.445 95.6031ZM173.963 106.595V106.041H185.836V106.595C185.836 109.868 183.172 112.533 179.898 112.533C176.625 112.533 173.963 109.868 173.963 106.595ZM184.012 143.269V121.401H196.874V143.267L184.012 143.269ZM198.836 143.269V120.42C198.836 119.879 198.396 119.438 197.855 119.438H183.031C182.49 119.438 182.05 119.879 182.05 120.42V143.269H178.334V114.336C178.839 114.439 179.363 114.492 179.899 114.492C182.875 114.492 185.469 112.837 186.817 110.401C188.163 112.837 190.76 114.492 193.736 114.492C196.712 114.492 199.306 112.837 200.655 110.401C202.001 112.837 204.597 114.492 207.573 114.492C210.55 114.492 213.146 112.837 214.495 110.401C215.841 112.837 218.437 114.492 221.413 114.492C221.949 114.492 222.472 114.437 222.978 114.336V121.891C220.983 122.022 219.179 122.56 217.665 123.459V120.417C217.665 119.876 217.224 119.436 216.683 119.436L203.93 119.438C203.389 119.438 202.949 119.878 202.949 120.419V130.916C202.949 131.457 203.389 131.897 203.93 131.897H212.811C212.791 132.373 212.799 132.853 212.834 133.339C213.007 135.638 213.815 138.003 215.174 140.177C215.815 141.203 216.52 142.237 217.252 143.269L198.836 143.269ZM213.061 129.933H204.912V121.401H215.701V124.986C215.087 125.605 214.553 126.31 214.121 127.095C213.633 127.97 213.28 128.926 213.061 129.933ZM231.332 138.645C230.044 140.776 228.391 143.015 226.791 145.184C225.741 146.603 224.735 147.966 223.932 149.171C223.132 147.966 222.126 146.605 221.079 145.186C219.608 143.191 218.085 141.128 216.843 139.138C214.505 135.397 214.118 131.147 215.836 128.048C217.346 125.325 220.221 123.826 223.935 123.826C227.543 123.826 230.494 125.391 232.034 128.118C233.744 131.15 233.483 135.085 231.332 138.645ZM223.933 126.616C220.514 126.616 217.731 129.399 217.731 132.818C217.731 136.24 220.514 139.022 223.933 139.022C227.354 139.022 230.137 136.24 230.137 132.818C230.137 129.399 227.354 126.616 223.933 126.616ZM223.933 137.06C221.595 137.06 219.696 135.158 219.696 132.818C219.696 130.481 221.598 128.581 223.933 128.581C226.272 128.581 228.175 130.483 228.175 132.818C228.175 135.158 226.272 137.06 223.933 137.06Z" fill="black"/>
<path d="M249.946 134.354H240.29C239.934 134.354 239.646 134.639 239.646 134.991V140.72C239.646 141.072 239.934 141.356 240.29 141.356H249.946C250.302 141.356 250.59 141.072 250.59 140.72V134.991C250.59 134.639 250.302 134.354 249.946 134.354ZM249.302 140.083H240.934V135.627H249.302V140.083ZM262.176 144.54H260.245V132.811C261.38 132.317 262.176 131.2 262.176 129.898V127.352C262.176 127.339 262.17 127.327 262.168 127.314C262.165 127.257 262.154 127.199 262.133 127.145C262.126 127.125 262.12 127.105 262.112 127.085C262.081 127.019 262.043 126.957 261.99 126.905L261.986 126.902L258.314 123.268V120.986C258.314 119.933 257.448 119.077 256.383 119.077H240.934C239.869 119.077 239.003 119.933 239.003 120.986V123.268L235.33 126.9C235.329 126.902 235.329 126.902 235.327 126.903C235.274 126.956 235.236 127.018 235.205 127.083C235.195 127.102 235.19 127.123 235.184 127.142C235.165 127.196 235.153 127.253 235.149 127.311C235.147 127.327 235.141 127.339 235.141 127.352V129.898C235.141 131.2 235.937 132.319 237.072 132.811V144.54H235.141C234.785 144.54 234.497 144.824 234.497 145.176C234.497 145.528 234.785 145.813 235.141 145.813H262.176C262.532 145.813 262.82 145.528 262.82 145.176C262.82 144.824 262.532 144.54 262.176 144.54ZM260.889 129.898C260.889 130.952 260.023 131.808 258.958 131.808C257.892 131.808 257.027 130.952 257.027 129.898V127.988H260.889V129.898ZM255.739 129.898C255.739 130.952 254.873 131.808 253.808 131.808C252.743 131.808 251.877 130.952 251.877 129.898V127.988H255.739V129.898ZM245.44 129.898C245.44 130.952 244.574 131.808 243.509 131.808C242.443 131.808 241.578 130.952 241.578 129.898V127.988H245.44V129.898ZM245.968 124.169L245.538 126.715H241.975L243.263 124.169H245.968ZM254.054 124.169L255.342 126.715H251.779L251.349 124.169H254.054ZM250.044 124.169L250.474 126.715H246.843L247.273 124.169H250.044ZM246.727 127.989H250.59V129.898C250.59 130.952 249.724 131.808 248.658 131.808C247.593 131.808 246.727 130.952 246.727 129.898V127.989ZM256.78 126.715L255.493 124.169H257.403L259.978 126.715H256.78ZM240.29 120.987C240.29 120.636 240.578 120.35 240.934 120.35H256.383C256.739 120.35 257.027 120.636 257.027 120.987V122.896H240.29V120.987ZM239.914 124.169H241.824L240.536 126.716H237.339L239.914 124.169ZM236.428 129.898V127.989H240.29V129.898C240.29 130.952 239.424 131.808 238.359 131.808C237.294 131.808 236.428 130.952 236.428 129.898ZM253.164 144.54V135.628H256.383V144.54H253.164ZM257.671 144.54V134.991C257.671 134.639 257.383 134.354 257.027 134.354H252.521C252.165 134.354 251.877 134.639 251.877 134.991V144.54H238.359V133.081C239.415 133.081 240.347 132.569 240.934 131.789C241.522 132.569 242.453 133.081 243.509 133.081C244.565 133.081 245.496 132.569 246.084 131.789C246.671 132.569 247.603 133.081 248.659 133.081C249.714 133.081 250.646 132.569 251.234 131.789C251.821 132.569 252.753 133.081 253.808 133.081C254.864 133.081 255.796 132.569 256.383 131.789C256.971 132.569 257.902 133.081 258.958 133.081V144.54H257.671ZM242.524 139.148C242.336 138.962 242.336 138.66 242.524 138.473L244.455 136.564C244.643 136.377 244.949 136.377 245.137 136.564C245.326 136.75 245.326 137.052 245.137 137.238L243.206 139.148C243.113 139.24 242.989 139.288 242.865 139.288C242.743 139.288 242.617 139.242 242.524 139.148ZM245.099 138.473L246.386 137.2C246.575 137.014 246.88 137.014 247.069 137.2C247.257 137.386 247.257 137.689 247.069 137.875L245.781 139.148C245.688 139.24 245.564 139.288 245.44 139.288C245.316 139.288 245.192 139.242 245.099 139.148C244.911 138.962 244.911 138.66 245.099 138.473ZM255.739 139.447V140.72C255.739 141.072 255.451 141.357 255.096 141.357C254.74 141.357 254.452 141.072 254.452 140.72V139.447C254.452 139.096 254.74 138.811 255.096 138.811C255.451 138.811 255.739 139.096 255.739 139.447ZM253.164 121.623C253.164 121.975 252.876 122.26 252.521 122.26H244.796C244.441 122.26 244.153 121.975 244.153 121.623C244.153 121.272 244.441 120.987 244.796 120.987H252.521C252.876 120.987 253.164 121.272 253.164 121.623Z" fill="black"/>
<path fill-rule="evenodd" clip-rule="evenodd" d="M329.508 74.0785H319.016C318.156 74.0785 317.453 74.7777 317.453 75.641V86.852H312.562C311.699 86.852 311 87.5512 311 88.4145V148.062C311 148.926 311.699 149.625 312.562 149.625H349.583C350.446 149.625 351.145 148.926 351.145 148.062V88.4145C351.145 87.5512 350.446 86.852 349.583 86.852H344.688V75.641C344.688 74.7777 343.989 74.0785 343.125 74.0785H332.633V60.5625C332.633 59.6992 331.934 59 331.071 59C330.208 59 329.508 59.6992 329.508 60.5625L329.508 74.0785ZM348.02 89.9765V146.499H314.125V89.9765H348.02ZM344.688 134.499C344.688 133.636 343.988 132.937 343.125 132.937H319.016C318.157 132.937 317.454 133.636 317.454 134.499V141.527C317.454 142.39 318.157 143.089 319.016 143.089H343.125C343.988 143.089 344.688 142.39 344.688 141.527V134.499ZM341.563 136.062V139.964H320.579V136.062H341.563ZM344.688 121.316C344.688 120.453 343.988 119.754 343.125 119.754H319.016C318.157 119.754 317.454 120.453 317.454 121.316V128.343C317.454 129.207 318.157 129.906 319.016 129.906H343.125C343.988 129.906 344.688 129.207 344.688 128.343V121.316ZM341.563 122.879V126.781H320.579V122.879H341.563ZM344.688 108.132C344.688 107.269 343.988 106.57 343.125 106.57H319.016C318.157 106.57 317.454 107.269 317.454 108.132V115.16C317.454 116.023 318.157 116.722 319.016 116.722H343.125C343.988 116.722 344.688 116.023 344.688 115.16V108.132ZM341.563 109.695V113.597H320.579V109.695H341.563ZM344.688 94.949C344.688 94.0857 343.988 93.3865 343.125 93.3865H319.016C318.157 93.3865 317.454 94.0857 317.454 94.949V101.976C317.454 102.84 318.157 103.539 319.016 103.539H343.125C343.988 103.539 344.688 102.84 344.688 101.976V94.949ZM341.563 96.5115V100.414H320.579V96.5115H341.563ZM320.579 86.8513H341.563V77.2029H320.579V86.8513ZM324.766 83.5427H337.375C338.234 83.5427 338.938 82.8435 338.938 81.9802C338.938 81.1169 338.234 80.4177 337.375 80.4177H324.766C323.907 80.4177 323.204 81.1169 323.204 81.9802C323.204 82.8435 323.907 83.5427 324.766 83.5427Z" fill="black"/>
<path d="M306.42 148.64H301.06V140.57C301.06 140.2 300.76 139.89 300.38 139.89H297.65V120.19C297.65 119.82 297.35 119.51 296.97 119.51H292.05V104.97C292.05 104.6 291.75 104.29 291.37 104.29H288.92V86.68C288.92 86.31 288.62 86 288.24 86H281.42C281.05 86 280.74 86.3 280.74 86.68V95.88H278C277.63 95.88 277.32 96.18 277.32 96.56C277.32 96.56 277.36 119.41 277.42 119.51H273.86C273.49 119.51 273.18 119.81 273.18 120.19V131.14H269.72C269.35 131.14 269.04 131.44 269.04 131.82V148.65H263.68C263.46 148.65 263.28 148.76 263.16 148.91V149.25H263.02C263.02 149.28 263 149.3 263 149.33C263 149.7 263.3 150.01 263.68 150.01H306.39C306.76 150.01 307.07 149.71 307.07 149.33C307.09 148.95 306.79 148.64 306.42 148.64ZM290.83 120.86H296.29V125.34H290.83V120.86ZM290.83 126.7H296.29V131.17H290.83V126.7ZM290.83 132.52H296.29V136.99H290.83V132.52ZM290.7 105.65V114.25H285.51V105.65H290.7ZM285.51 123.91V115.6H290.7V119.5H290.16C289.79 119.5 289.48 119.8 289.48 120.18V123.91H285.51ZM289.48 125.27V133.58H285.51V125.27H289.48ZM282.1 87.36H287.56V91.1H282.1V87.36ZM275.88 148.64H270.42V132.5H275.88V148.64ZM280.02 148.64H277.24V144.17H280.02V148.64ZM280.02 142.82H277.24V138.35H280.02V142.82ZM280.02 136.99H277.24V132.52H280.02V136.99ZM280.02 131.16L274.56 131.14V126.7H280.02V131.16ZM280.02 125.34H274.56V120.86H280.02V125.34ZM284.15 148.64H281.37V142.46H284.15V148.64ZM284.15 141.11H281.37V134.93H284.15V141.11ZM284.15 133.58H281.37V127.39H284.15V133.58ZM284.15 126.03H281.37C281.37 126.03 281.33 119.95 281.27 119.85H284.15V126.03ZM284.15 118.49H278.69V112.31H284.15V118.49ZM284.15 110.96H278.69V104.78H284.15V110.96ZM284.15 103.42H278.69V97.23H284.15V103.42ZM284.83 95.88H282.11V92.46H287.57V104.3H285.51V96.56C285.51 96.18 285.2 95.88 284.83 95.88ZM285.97 143.47V148.65H285.5V134.93H289.47V142.79H286.64C286.28 142.79 285.97 143.09 285.97 143.47ZM291.04 148.64H287.33V144.14H291.04V148.64ZM292.88 140.57V148.64H292.39V143.46C292.39 143.09 292.09 142.78 291.71 142.78H290.82V138.34H296.28V139.89H293.56C293.18 139.89 292.88 140.2 292.88 140.57ZM299.7 148.64H294.24V141.24H299.7V148.64Z" fill="black"/>
<path d="M206 93.5L248.853 119.606C249.236 119.839 249.727 119.789 250.055 119.485L284.917 87.0774C284.972 87.026 285.033 86.981 285.098 86.9433L330.852 60.5853C330.95 60.5288 331.057 60.4894 331.168 60.4687L382 51" stroke="black"/>
<path d="M260.454 105.695C259.778 105.5 259.057 105.651 258.577 106.06C255.446 107.981 253.373 108.506 251.834 108.675C251.95 108.444 252.021 108.177 252.021 107.901C252.021 106.923 251.22 106.122 250.242 106.122H247.493C246.799 106.122 246.15 105.855 245.66 105.366C245.002 104.708 244.13 104.343 243.196 104.343H240.448V103.898C240.448 103.649 240.252 103.454 240.003 103.454H236.445C236.196 103.454 236 103.649 236 103.898V111.015C236 111.264 236.196 111.46 236.445 111.46H240.003C240.03 111.46 240.056 111.451 240.083 111.442L245.1 114.102C246.212 114.689 247.466 115 248.721 115C249.094 115 249.468 114.973 249.841 114.92C250.704 114.795 251.54 114.52 252.314 114.11L261.103 109.449C261.85 108.907 262.162 107.955 261.877 107.074C261.655 106.407 261.121 105.891 260.454 105.695ZM239.558 110.57H236.89V104.343H239.558V110.57ZM260.632 108.684L251.896 113.319C251.211 113.683 250.473 113.924 249.708 114.039C248.285 114.253 246.79 113.995 245.518 113.319L240.448 110.632V105.233H243.196C243.89 105.233 244.54 105.5 245.029 105.989C245.687 106.647 246.559 107.012 247.493 107.012H250.242C250.731 107.012 251.131 107.412 251.131 107.901C251.131 108.346 250.802 108.693 250.375 108.764C250.17 108.773 249.966 108.782 249.779 108.791H247.413C247.164 108.791 246.968 108.987 246.968 109.236C246.968 109.485 247.164 109.68 247.413 109.68H250.233C250.357 109.68 250.473 109.671 250.589 109.645C252.252 109.583 254.76 109.44 259.084 106.789C259.395 106.531 259.804 106.442 260.205 106.558C260.596 106.674 260.898 106.958 261.023 107.35C261.192 107.857 261.014 108.408 260.632 108.684Z" fill="black"/>
<path d="M238.224 109.681C238.473 109.681 238.669 109.485 238.669 109.236V105.678C238.669 105.429 238.473 105.233 238.224 105.233C237.975 105.233 237.779 105.429 237.779 105.678V109.236C237.779 109.485 237.975 109.681 238.224 109.681Z" fill="black"/>
<path d="M257.883 91C257.145 91 256.549 91.596 256.549 92.3343C256.549 92.5389 256.602 92.7346 256.682 92.9036L254.005 95.5812C253.827 95.5011 253.64 95.4477 253.435 95.4477C253.115 95.4477 252.822 95.5634 252.59 95.7591L250.295 94.3803C250.313 94.2913 250.322 94.2024 250.322 94.1134C250.322 93.3751 249.726 92.7791 248.988 92.7791C248.249 92.7791 247.653 93.3751 247.653 94.1134C247.653 94.2646 247.68 94.4069 247.733 94.5493L245.243 96.5418C245.038 96.4173 244.798 96.3373 244.54 96.3373C243.801 96.3373 243.206 96.9333 243.206 97.6716C243.206 98.4099 243.802 99.0059 244.54 99.0059C245.278 99.0059 245.874 98.4099 245.874 97.6716C245.874 97.5203 245.847 97.378 245.794 97.2357L248.285 95.2431C248.489 95.3677 248.73 95.4477 248.988 95.4477C249.308 95.4477 249.601 95.3321 249.833 95.1364L252.128 96.5152C252.11 96.6041 252.101 96.6931 252.101 96.782C252.101 97.5204 252.697 98.1164 253.435 98.1164C254.174 98.1164 254.77 97.5203 254.77 96.782C254.77 96.5774 254.716 96.3818 254.636 96.2127L257.314 93.5352C257.492 93.6153 257.678 93.6686 257.883 93.6686C258.621 93.6686 259.217 93.0726 259.217 92.3343C259.217 91.596 258.621 91 257.883 91ZM244.54 98.1164C244.291 98.1164 244.095 97.9207 244.095 97.6716C244.095 97.4225 244.291 97.2268 244.54 97.2268C244.789 97.2268 244.985 97.4225 244.985 97.6716C244.985 97.9207 244.789 98.1164 244.54 98.1164ZM249.361 94.3359C249.281 94.4693 249.148 94.5583 248.988 94.5583C248.739 94.5583 248.543 94.3626 248.543 94.1135C248.543 93.8644 248.739 93.6687 248.988 93.6687C249.237 93.6687 249.432 93.8644 249.432 94.1135C249.432 94.1935 249.406 94.2736 249.361 94.3359ZM253.435 97.2268C253.186 97.2268 252.991 97.0311 252.991 96.7821C252.991 96.702 253.017 96.6219 253.062 96.5597C253.142 96.4351 253.275 96.3373 253.435 96.3373C253.684 96.3373 253.88 96.533 253.88 96.7821C253.88 97.0311 253.684 97.2268 253.435 97.2268ZM257.883 92.7791C257.634 92.7791 257.438 92.5834 257.438 92.3343C257.438 92.0852 257.634 91.8895 257.883 91.8895C258.132 91.8895 258.328 92.0852 258.328 92.3343C258.328 92.5834 258.132 92.7791 257.883 92.7791Z" fill="black"/>
<path d="M243.65 99.8955C243.401 99.8955 243.206 100.091 243.206 100.34V103.009C243.206 103.258 243.401 103.454 243.65 103.454H245.429C245.678 103.454 245.874 103.258 245.874 103.009V100.34C245.874 100.091 245.678 99.8955 245.429 99.8955H243.65ZM244.985 102.564H244.095V100.785H244.985V102.564Z" fill="black"/>
<path d="M248.098 97.2269C247.849 97.2269 247.653 97.4226 247.653 97.6717V103.009C247.653 103.258 247.849 103.454 248.098 103.454H249.877C250.126 103.454 250.322 103.258 250.322 103.009V97.6717C250.322 97.4226 250.126 97.2269 249.877 97.2269H248.098ZM249.432 102.564H248.543V98.1164H249.432V102.564Z" fill="black"/>
<path d="M252.546 99.006C252.297 99.006 252.101 99.2017 252.101 99.4508V103.009C252.101 103.258 252.297 103.454 252.546 103.454H254.325C254.574 103.454 254.77 103.258 254.77 103.009V99.4508C254.77 99.2017 254.574 99.006 254.325 99.006H252.546ZM253.88 102.564H252.991V99.8955H253.88V102.564Z" fill="black"/>
<path d="M256.993 95.4478C256.744 95.4478 256.549 95.6435 256.549 95.8926V103.009C256.549 103.258 256.744 103.454 256.993 103.454H258.773C259.022 103.454 259.217 103.258 259.217 103.009V95.8926C259.217 95.6435 259.022 95.4478 258.773 95.4478H256.993ZM258.328 102.564H257.438V96.3373H258.328V102.564Z" fill="black"/>
<path d="M290.796 75.7066C290.511 76.6564 290.306 77.6281 290.181 78.6117C290.116 79.886 290.095 81.2217 290.12 82.5821C290.12 82.6907 290.076 82.795 290 82.8718C289.923 82.9486 289.819 82.9918 289.71 82.9918C289.601 82.9918 289.497 82.9486 289.42 82.8718C289.343 82.795 289.3 82.6907 289.3 82.5821C289.276 81.2053 289.3 79.8491 289.362 78.5502C289.493 77.5219 289.709 76.5063 290.009 75.5141C291.054 71.4167 292.64 65.2706 288.108 62.0623C285.379 60.1243 282.224 59.4195 279.27 60.0751C276.721 60.6364 274.517 62.1689 273.374 64.1725C272.144 66.3318 272.493 69.6999 272.497 69.7326C272.501 69.7951 272.492 69.8578 272.472 69.917L270.866 74.3299C270.843 74.3969 270.834 74.4681 270.84 74.5388C270.847 74.6094 270.868 74.6779 270.903 74.7397C270.938 74.803 270.986 74.8576 271.045 74.8995C271.104 74.9413 271.172 74.9693 271.243 74.9814L273.128 75.3379C273.218 75.3552 273.299 75.4021 273.359 75.4711C273.42 75.5402 273.455 75.6275 273.46 75.7189L273.619 78.9436C273.648 79.4341 273.868 79.8939 274.232 80.2241C274.596 80.5543 275.075 80.7286 275.566 80.7096L280.839 80.476C280.894 80.4735 280.948 80.482 281 80.501C281.051 80.52 281.098 80.5491 281.138 80.5866C281.179 80.6252 281.211 80.6716 281.233 80.7231C281.254 80.7745 281.266 80.8299 281.265 80.8857V82.5903C281.265 82.6989 281.222 82.8032 281.145 82.88C281.068 82.9568 280.964 83 280.855 83C280.747 83 280.643 82.9568 280.566 82.88C280.489 82.8032 280.446 82.6989 280.446 82.5903V81.3119L275.603 81.529C274.895 81.5581 274.205 81.3081 273.681 80.8328C273.157 80.3575 272.84 79.6952 272.8 78.9887L272.644 76.0918L271.079 75.7968C270.89 75.7624 270.711 75.6869 270.555 75.5758C270.398 75.4646 270.268 75.3205 270.174 75.1535C270.079 74.9869 270.021 74.8017 270.005 74.6107C269.989 74.4197 270.014 74.2274 270.079 74.0472L271.673 69.7244C271.616 69.118 271.407 65.9671 272.661 63.7668C273.914 61.5665 276.324 59.8866 279.094 59.2597C282.29 58.5509 285.649 59.3048 288.583 61.3781C293.578 64.9346 291.902 71.4167 290.796 75.7066ZM275.447 71.5314C275.53 71.2037 275.658 70.8893 275.828 70.5972L275.418 69.8187C275.075 69.7989 274.737 69.7285 274.414 69.6097C274.339 69.5817 274.274 69.5322 274.226 69.4674C274.179 69.4026 274.152 69.3252 274.148 69.2451L274.066 67.4504C274.058 67.3659 274.077 67.2811 274.12 67.2077C274.162 67.1343 274.227 67.0759 274.304 67.0407C274.606 66.8973 274.928 66.7979 275.258 66.7456L275.607 65.9262C275.411 65.6432 275.255 65.3343 275.144 65.0083C275.119 64.9323 275.117 64.8506 275.138 64.7734C275.159 64.6962 275.202 64.6269 275.262 64.574L276.619 63.394C276.679 63.3412 276.753 63.3072 276.833 63.2963C276.912 63.2854 276.993 63.298 277.065 63.3325C277.374 63.4845 277.659 63.682 277.909 63.9184L278.762 63.6849C278.854 63.3559 278.992 63.0415 279.171 62.7507C279.215 62.6841 279.277 62.6317 279.349 62.5996C279.422 62.5676 279.503 62.5575 279.581 62.5704L281.347 62.8941C281.426 62.9081 281.5 62.9451 281.558 63.0005C281.616 63.0559 281.657 63.1272 281.675 63.2055C281.745 63.5421 281.769 63.8868 281.745 64.2298L282.458 64.7502C282.776 64.6206 283.111 64.5378 283.453 64.5044C283.535 64.4946 283.618 64.5097 283.691 64.5477C283.764 64.5857 283.824 64.6448 283.863 64.7174L284.711 66.299C284.749 66.3699 284.766 66.4504 284.758 66.5306C284.751 66.6107 284.72 66.6869 284.67 66.7497C284.452 67.0154 284.196 67.2485 283.912 67.4422L283.949 68.3231C284.252 68.4899 284.528 68.7012 284.768 68.95C284.825 69.0081 284.862 69.0815 284.877 69.161C284.892 69.2404 284.882 69.3224 284.85 69.3967L284.146 71.0356C284.114 71.1089 284.061 71.1712 283.994 71.2149C283.927 71.2586 283.849 71.2817 283.769 71.2815C283.425 71.2782 283.084 71.2244 282.757 71.1217L282.089 71.7035C282.145 72.0421 282.152 72.3872 282.109 72.7278C282.099 72.8084 282.065 72.8841 282.012 72.9454C281.959 73.0067 281.888 73.0507 281.81 73.072L280.081 73.5473C280.044 73.5513 280.007 73.5513 279.97 73.5473C279.909 73.547 279.848 73.5329 279.793 73.5059C279.737 73.479 279.689 73.4399 279.651 73.3916C279.438 73.1224 279.267 72.8226 279.143 72.5025L278.274 72.3427C278.055 72.6162 277.796 72.8564 277.508 73.0556C277.439 73.0967 277.36 73.1166 277.279 73.113C277.199 73.1094 277.122 73.0823 277.057 73.0351L275.607 71.978C275.537 71.9293 275.484 71.8602 275.456 71.7802C275.427 71.7002 275.424 71.6132 275.447 71.5314ZM276.004 69.1754L276.676 70.4333C276.721 70.5164 276.735 70.6123 276.717 70.7048C276.699 70.7974 276.65 70.8809 276.578 70.9414C276.458 71.0977 276.371 71.2759 276.32 71.4658L277.307 72.1829C277.467 72.0721 277.606 71.9333 277.717 71.7731C277.747 71.6963 277.801 71.6304 277.869 71.5844C277.938 71.5383 278.019 71.5141 278.102 71.515H278.172L279.573 71.7731C279.668 71.7906 279.755 71.8414 279.816 71.9164C279.878 71.9914 279.911 72.0859 279.909 72.1829C279.965 72.3713 280.055 72.5478 280.175 72.7033L281.351 72.3796C281.368 72.1851 281.348 71.9893 281.294 71.8018C281.247 71.7197 281.23 71.6237 281.245 71.5304C281.261 71.437 281.309 71.3519 281.38 71.2897L282.453 70.3513C282.527 70.2911 282.619 70.2581 282.714 70.2581C282.808 70.2581 282.9 70.2911 282.974 70.3513C283.153 70.4269 283.345 70.4712 283.539 70.4825L284.015 69.368C283.872 69.2346 283.707 69.1278 283.527 69.0525C283.433 69.0384 283.347 68.9923 283.284 68.9221C283.22 68.8519 283.183 68.7619 283.179 68.6673L283.113 67.2414C283.111 67.1473 283.141 67.0551 283.198 66.9805C283.255 66.9059 283.337 66.8533 283.429 66.8317C283.601 66.7406 283.757 66.6199 283.887 66.4752L283.31 65.3976C283.116 65.4273 282.929 65.4897 282.757 65.582C282.687 65.647 282.597 65.6858 282.502 65.6918C282.407 65.6978 282.313 65.6706 282.236 65.6148L281.085 64.7748C281.008 64.719 280.953 64.6382 280.929 64.5463C280.905 64.4544 280.914 64.357 280.954 64.2708C280.989 64.0785 280.989 63.8813 280.954 63.689L279.766 63.439C279.668 63.6092 279.6 63.7949 279.565 63.9881C279.568 64.0801 279.54 64.1705 279.486 64.2448C279.432 64.3192 279.354 64.3731 279.266 64.3978L277.893 64.7748C277.801 64.801 277.702 64.794 277.615 64.755C277.527 64.7161 277.456 64.6477 277.414 64.5617C277.288 64.4117 277.135 64.2866 276.963 64.193L276.045 65.0124C276.115 65.1951 276.216 65.3643 276.344 65.5123C276.422 65.5662 276.479 65.6454 276.505 65.7366C276.532 65.8278 276.525 65.9252 276.488 66.0122L275.922 67.3193C275.885 67.4071 275.819 67.4794 275.734 67.5235C275.65 67.5676 275.552 67.5809 275.459 67.561C275.263 67.5677 275.071 67.6093 274.89 67.6839L274.943 68.9132C275.13 68.9707 275.325 68.9957 275.521 68.9869C275.611 68.9577 275.708 68.9605 275.796 68.9949C275.884 69.0292 275.958 69.093 276.004 69.1754ZM277.459 67.2045C277.634 66.7934 277.927 66.4435 278.301 66.1991C278.675 65.9547 279.114 65.8269 279.561 65.8318C280.007 65.8367 280.443 65.9741 280.811 66.2266C281.18 66.4791 281.466 66.8354 281.632 67.2503C281.798 67.6652 281.837 68.1201 281.744 68.5573C281.652 68.9945 281.431 69.3943 281.111 69.7062C280.791 70.0181 280.386 70.228 279.946 70.3093C279.507 70.3906 279.053 70.3396 278.643 70.1629C278.369 70.0481 278.122 69.8801 277.914 69.6687C277.706 69.4573 277.542 69.2067 277.432 68.9315C277.322 68.6562 277.267 68.3618 277.272 68.0653C277.277 67.7688 277.34 67.4763 277.459 67.2045ZM278.967 69.4089C279.316 69.558 279.71 69.5623 280.063 69.421C280.415 69.2796 280.698 69.0042 280.847 68.655C280.962 68.3947 280.996 68.1061 280.945 67.8262C280.894 67.5463 280.761 67.288 280.563 67.0845C280.364 66.881 280.109 66.7415 279.83 66.684C279.552 66.6266 279.262 66.6537 278.999 66.762C278.824 66.8308 278.664 66.934 278.529 67.0656C278.393 67.1972 278.286 67.3545 278.213 67.5282C278.138 67.7012 278.099 67.8871 278.096 68.0753C278.094 68.2636 278.129 68.4504 278.199 68.6252C278.269 68.7999 278.373 68.9591 278.505 69.0936C278.636 69.2281 278.793 69.3353 278.967 69.4089ZM288.104 74.0964L288.079 73.5063C288.293 73.353 288.486 73.1726 288.653 72.9696C288.703 72.9068 288.734 72.8306 288.741 72.7504C288.748 72.6702 288.732 72.5897 288.694 72.5189L288.03 71.2897C287.992 71.2163 287.932 71.1563 287.859 71.1175C287.786 71.0788 287.702 71.0631 287.62 71.0725C287.36 71.1021 287.104 71.1626 286.858 71.2528L286.383 70.9045C286.397 70.6434 286.376 70.3816 286.321 70.126C286.31 70.0722 286.288 70.0212 286.256 69.9759C286.225 69.9306 286.185 69.8919 286.139 69.8621C286.093 69.8322 286.041 69.8117 285.987 69.8018C285.933 69.7919 285.877 69.7928 285.824 69.8043C285.77 69.8159 285.719 69.838 285.673 69.8692C285.628 69.9005 285.589 69.9404 285.56 69.9866C285.53 70.0329 285.509 70.0845 285.499 70.1387C285.489 70.1928 285.49 70.2484 285.502 70.3022C285.549 70.5008 285.56 70.7061 285.535 70.9086C285.496 70.9984 285.491 71.099 285.521 71.1921C285.55 71.2853 285.612 71.3649 285.694 71.4167L286.596 72.0764C286.672 72.1316 286.765 72.159 286.859 72.1537C286.953 72.1485 287.042 72.1111 287.112 72.0477C287.217 71.9942 287.328 71.9569 287.444 71.937L287.833 72.6459C287.755 72.7292 287.663 72.7997 287.563 72.8549C287.472 72.8773 287.391 72.9302 287.335 73.0047C287.278 73.0793 287.249 73.171 287.251 73.2646L287.297 74.3832C287.301 74.4771 287.338 74.5667 287.4 74.6368C287.463 74.707 287.548 74.7534 287.641 74.7683C287.748 74.8152 287.848 74.8788 287.936 74.9568L287.608 75.7148C287.493 75.7039 287.38 75.6777 287.272 75.637C287.199 75.5767 287.107 75.5438 287.012 75.5438C286.917 75.5438 286.825 75.5767 286.752 75.637L285.912 76.395C285.84 76.4573 285.793 76.5423 285.777 76.6357C285.761 76.7291 285.779 76.825 285.826 76.9072C285.855 77.0208 285.866 77.1384 285.858 77.2555L285.063 77.4726C285 77.3761 284.951 77.2713 284.916 77.1612C284.918 77.0642 284.885 76.9698 284.823 76.8947C284.762 76.8197 284.675 76.7689 284.58 76.7515L283.482 76.5507C283.389 76.5335 283.293 76.5489 283.21 76.5945C283.127 76.64 283.062 76.7129 283.027 76.8006C282.956 76.8933 282.872 76.9748 282.777 77.0424L282.109 76.5589C282.147 76.4494 282.198 76.3448 282.261 76.2475C282.335 76.1881 282.385 76.1051 282.405 76.0125C282.424 75.9199 282.411 75.8234 282.367 75.7394L281.839 74.7519C281.794 74.6682 281.722 74.6024 281.635 74.5658C281.548 74.5292 281.45 74.524 281.359 74.5512C281.154 74.5493 280.951 74.509 280.761 74.4324C280.711 74.4135 280.657 74.4048 280.603 74.4068C280.549 74.4087 280.496 74.4213 280.447 74.4438C280.398 74.4662 280.354 74.4981 280.317 74.5376C280.28 74.5771 280.251 74.6235 280.233 74.6741C280.214 74.7247 280.205 74.7785 280.207 74.8324C280.209 74.8863 280.222 74.9394 280.244 74.9884C280.266 75.0375 280.298 75.0817 280.338 75.1185C280.377 75.1552 280.424 75.1838 280.474 75.2027C280.721 75.2939 280.979 75.3504 281.241 75.3707L281.519 75.891C281.392 76.1201 281.297 76.3655 281.236 76.6204C281.221 76.6964 281.227 76.7753 281.255 76.8478C281.282 76.9203 281.33 76.9836 281.392 77.0301L282.531 77.8496C282.596 77.8967 282.673 77.9238 282.754 77.9274C282.834 77.9311 282.913 77.9111 282.982 77.8701C283.207 77.7329 283.412 77.5661 283.592 77.3743L284.174 77.4849C284.279 77.7281 284.417 77.9556 284.584 78.161C284.623 78.2098 284.672 78.2492 284.728 78.2762C284.784 78.3032 284.846 78.317 284.908 78.3167C284.943 78.3223 284.979 78.3223 285.014 78.3167L286.375 77.9479C286.452 77.9259 286.522 77.8816 286.574 77.8203C286.627 77.7591 286.66 77.6838 286.67 77.6037C286.707 77.3442 286.707 77.0807 286.67 76.8211L287.116 76.4114C287.368 76.4843 287.629 76.5229 287.891 76.5261C287.971 76.5272 288.05 76.5045 288.118 76.4607C288.186 76.417 288.239 76.3542 288.272 76.2803L288.829 74.9855C288.861 74.9113 288.87 74.8293 288.856 74.7498C288.841 74.6703 288.803 74.597 288.747 74.5389C288.553 74.3639 288.337 74.2151 288.104 74.0964ZM285.256 72.2361C285.593 72.3812 285.88 72.623 286.08 72.931C286.28 73.2389 286.384 73.5993 286.379 73.9664C286.374 74.3335 286.26 74.6909 286.052 74.9934C285.844 75.2959 285.551 75.5298 285.21 75.6657C284.869 75.8016 284.495 75.8332 284.136 75.7566C283.777 75.6801 283.448 75.4988 283.192 75.2356C282.936 74.9724 282.764 74.6393 282.698 74.2782C282.631 73.9171 282.673 73.5444 282.818 73.2072C283.013 72.7553 283.379 72.3991 283.836 72.217C284.293 72.0349 284.804 72.0418 285.256 72.2361ZM284.932 72.9901C284.803 72.9334 284.664 72.9041 284.523 72.904C284.391 72.9047 284.26 72.9297 284.137 72.9778C284.011 73.0279 283.896 73.1026 283.799 73.1976C283.702 73.2925 283.625 73.4058 283.572 73.5309C283.518 73.656 283.49 73.7905 283.488 73.9267C283.486 74.0628 283.511 74.198 283.561 74.3246C283.612 74.4511 283.687 74.5664 283.782 74.664C283.877 74.7616 283.99 74.8395 284.115 74.8933C284.24 74.9471 284.374 74.9758 284.511 74.9776C284.647 74.9794 284.782 74.9544 284.909 74.904C285.035 74.8536 285.15 74.7788 285.248 74.6838C285.346 74.5888 285.423 74.4755 285.477 74.3504C285.585 74.0977 285.589 73.8125 285.486 73.5574C285.384 73.3024 285.185 73.0983 284.932 72.9901Z" fill="black"/>
<path d="M328.58 33H311.42C308.983 33 307 35.6692 307 38.9511V53.1725C307 56.4543 308.983 59.1236 311.42 59.1236H312.492L312.07 64.0682C311.94 65.1184 312.297 66.1248 312.947 66.6499C313.24 66.8687 313.565 67 313.89 67C314.312 67 314.735 66.825 315.125 66.4311L320.65 59.1236H328.58C331.017 59.1236 333 56.4543 333 53.1725V38.9511C333 35.6692 331.017 33 328.58 33ZM331.732 53.1725C331.732 55.4916 330.335 57.417 328.58 57.417H320.422C320.26 57.417 320.065 57.4607 319.935 57.6358L314.312 65.1622C313.987 65.4685 313.695 65.2934 313.597 65.2059C313.5 65.1184 313.24 64.8559 313.305 64.287L313.825 58.3797C313.825 58.3359 313.825 58.3359 313.825 58.2921C313.825 58.2484 313.792 58.1609 313.792 58.1171C313.792 58.0734 313.792 58.0734 313.792 58.0296C313.76 57.9421 313.76 57.8983 313.728 57.8546C313.695 57.8108 313.695 57.7671 313.662 57.7671C313.63 57.7233 313.598 57.6795 313.565 57.6795C313.533 57.6358 313.5 57.592 313.467 57.592C313.435 57.592 313.403 57.5483 313.403 57.5483C313.37 57.5483 313.337 57.5045 313.272 57.5045C313.24 57.5045 313.24 57.5045 313.207 57.5045H311.42C309.697 57.5045 308.267 55.6229 308.267 53.26V38.9511C308.267 36.6319 309.665 34.7066 311.42 34.7066H328.612C330.335 34.7066 331.765 36.5882 331.765 38.9511V53.1725H331.732Z" fill="black"/>
<path d="M328.58 33H311.42C308.983 33 307 35.6692 307 38.9511V53.1725C307 56.4543 308.983 59.1236 311.42 59.1236H312.492L312.07 64.0682C311.94 65.1184 312.297 66.1248 312.947 66.6499C313.24 66.8687 313.565 67 313.89 67C314.312 67 314.735 66.825 315.125 66.4311L320.65 59.1236H328.58C331.017 59.1236 333 56.4543 333 53.1725V38.9511C333 35.6692 331.017 33 328.58 33ZM331.732 53.1725C331.732 55.4916 330.335 57.417 328.58 57.417H320.422C320.26 57.417 320.065 57.4607 319.935 57.6358L314.312 65.1622C313.987 65.4685 313.695 65.2934 313.597 65.2059C313.5 65.1184 313.24 64.8559 313.305 64.287L313.825 58.3797C313.825 58.3359 313.825 58.3359 313.825 58.2921C313.825 58.2484 313.792 58.1609 313.792 58.1171C313.792 58.0734 313.792 58.0734 313.792 58.0296C313.76 57.9421 313.76 57.8983 313.728 57.8546C313.695 57.8108 313.695 57.7671 313.662 57.7671C313.63 57.7233 313.598 57.6795 313.565 57.6795C313.533 57.6358 313.5 57.592 313.467 57.592C313.435 57.592 313.403 57.5483 313.403 57.5483C313.37 57.5483 313.337 57.5045 313.272 57.5045C313.24 57.5045 313.24 57.5045 313.207 57.5045H311.42C309.697 57.5045 308.267 55.6229 308.267 53.26V38.9511C308.267 36.6319 309.665 34.7066 311.42 34.7066H328.612C330.335 34.7066 331.765 36.5882 331.765 38.9511V53.1725H331.732Z" fill="black"/>
<path d="M313.5 44C312.136 44 311 45.5455 311 47.5C311 49.4091 312.104 51 313.5 51C314.896 51 316 49.4545 316 47.5C316 45.5455 314.896 44 313.5 44ZM313.5 49.2273C312.818 49.2273 312.266 48.4545 312.266 47.5C312.266 46.5455 312.818 45.7727 313.5 45.7727C314.182 45.7727 314.734 46.5455 314.734 47.5C314.766 48.4545 314.182 49.2273 313.5 49.2273Z" fill="black"/>
<path d="M320 44C318.364 44 317 45.5455 317 47.5C317 49.4091 318.325 51 320 51C321.636 51 323 49.4545 323 47.5C323 45.5455 321.636 44 320 44ZM320 49.2273C319.182 49.2273 318.519 48.4545 318.519 47.5C318.519 46.5455 319.182 45.7727 320 45.7727C320.818 45.7727 321.481 46.5455 321.481 47.5C321.481 48.4545 320.818 49.2273 320 49.2273Z" fill="black"/>
<path d="M326.5 44C325.136 44 324 45.5455 324 47.5C324 49.4091 325.104 51 326.5 51C327.896 51 329 49.4545 329 47.5C328.968 45.5455 327.864 44 326.5 44ZM326.5 49.2273C325.818 49.2273 325.266 48.4545 325.266 47.5C325.266 46.5455 325.818 45.7727 326.5 45.7727C327.182 45.7727 327.734 46.5455 327.734 47.5C327.734 48.4545 327.182 49.2273 326.5 49.2273Z" fill="black"/>
<path d="M394.061 29.0841C393.923 28.6611 393.565 28.3642 393.123 28.3087L385.747 27.3816L382.586 20.6526C382.396 20.2499 382.003 20 381.559 20C381.115 20 380.722 20.2499 380.533 20.6526L377.371 27.3816L369.995 28.3087C369.554 28.3642 369.195 28.6611 369.057 29.0841C368.919 29.5071 369.036 29.9578 369.36 30.2622L374.783 35.3486L373.386 42.6502C373.303 43.087 373.474 43.5207 373.834 43.7813C374.033 43.9266 374.265 43.9992 374.499 43.9992C374.687 43.9992 374.875 43.9522 375.048 43.8571L381.56 40.2716L388.072 43.8571C388.462 44.0718 388.927 44.043 389.287 43.7813C389.645 43.5196 389.817 43.087 389.734 42.6502L388.337 35.3486L393.76 30.2622C394.085 29.9578 394.2 29.5071 394.063 29.0841H394.061ZM387.454 34.4866C387.165 34.7579 387.041 35.1371 387.115 35.527L388.485 42.6789L382.106 39.1669C381.932 39.0708 381.745 39.0227 381.559 39.0227C381.372 39.0227 381.185 39.0708 381.012 39.1669L374.634 42.6789L376.003 35.527C376.078 35.1371 375.955 34.7579 375.664 34.4866L370.353 29.5049L377.577 28.597C377.971 28.5479 378.294 28.3129 378.463 27.954L381.559 21.3637L384.655 27.954C384.824 28.3129 385.147 28.5479 385.541 28.597L392.766 29.5049L387.454 34.4866Z" fill="black"/>
<path d="M382.203 63.5758C383.014 63.5758 383.622 62.8659 383.622 62.0547C383.622 61.2435 383.014 60.5335 382.203 60.5335C381.391 60.5335 380.783 61.2435 380.783 62.0547C380.783 62.9671 381.391 63.5758 382.203 63.5758Z" fill="black"/>
<path d="M396.706 87.1058V81.4265H393.663L393.765 66.3148L382.203 51.8115L370.641 66.3148L370.743 81.4265H367.7V87.1058H370.743V87.7142H367.7V92.5824H370.743V93.1908H367.7V98.059H370.743V98.6674H367.7V103.536H370.743V104.144H367.7V109.012H370.743V109.62H367.7V114.489H370.743V115.097H367.7V119.965H370.743V120.574H367.7V125.442H370.743V126.05H367.7V130.918H370.743V131.527H367.7V136.193H370.743V136.802H367.7V149.783H396.808V136.802H393.765V136.193H396.808V131.325H393.765V130.717H396.808V125.848H393.765V125.24H396.808V120.372H393.765V119.763H396.808V114.895H393.765V114.287H396.808V109.419H393.765V108.81H396.808V103.942H393.765V103.334H396.808V98.4655H393.765V97.8571H396.808V92.989H393.765V92.5824H396.808V87.7142H393.765V87.1058L396.706 87.1058ZM387.882 76.0508H388.897V137.308H387.882V76.0508ZM381.087 60.9392V59.3164H383.42V60.9392H385.043V63.2718H383.42V64.8946H381.087V63.2718H379.464V60.9392H381.087ZM382.811 67.8357V137.308H381.797L381.797 67.8357H382.811ZM379.16 70.4727H380.175V137.309H379.16V70.4727ZM375.509 76.0509H376.524V137.308H375.509V76.0509ZM377.74 147.958H374.394V145.422H377.842V147.958H377.74ZM377.74 142.988H374.394V140.453H377.842V142.988H377.74ZM380.073 149.276V145.422H382V149.276H380.073ZM382.507 145.422H384.434V149.276H382.507V145.422ZM385.347 142.988H379.262V140.453H385.347V142.988ZM385.347 137.41H384.333V70.4725H385.347V137.41ZM390.114 147.957H386.665V145.422H390.114V147.957ZM390.114 142.988H386.665V140.453H390.114V142.988Z" fill="black"/>
</g>
<defs>
<clipPath id="clip0_0_1">
<rect width="600" height="300" fill="white"/>
</clipPath>
</defs>
</svg>
